<mxfile host="app.diagrams.net" modified="2021-06-03T10:17:16.801Z" agent="5.0 (Macintosh; Intel Mac OS X 10_15_7) AppleWebKit/537.36 (KHTML, like Gecko) Chrome/91.0.4472.77 Safari/537.36" etag="X9E9lS4Q9IXIDFf-S3y3" version="14.7.4" type="github">
  <diagram id="Iz15Xykg4qVe2j_nMEft" name="Page-1">
    <mxGraphModel dx="895" dy="558" grid="1" gridSize="10" guides="1" tooltips="1" connect="1" arrows="1" fold="1" page="1" pageScale="1" pageWidth="827" pageHeight="1169" math="0" shadow="0">
      <root>
        <mxCell id="0" />
        <mxCell id="1" parent="0" />
        <mxCell id="hKUSv064cI4xOUoIy82y-57" value="" style="edgeStyle=elbowEdgeStyle;rounded=0;orthogonalLoop=1;jettySize=auto;html=1;startArrow=none;startFill=0;endArrow=none;endFill=0;strokeColor=#000000;" edge="1" parent="1" source="hKUSv064cI4xOUoIy82y-1" target="hKUSv064cI4xOUoIy82y-56">
          <mxGeometry relative="1" as="geometry" />
        </mxCell>
        <mxCell id="hKUSv064cI4xOUoIy82y-1" value="/main" style="rounded=0;whiteSpace=wrap;html=1;fillColor=#dae8fc;strokeColor=#6c8ebf;" vertex="1" parent="1">
          <mxGeometry x="350" y="40" width="90" height="30" as="geometry" />
        </mxCell>
        <mxCell id="hKUSv064cI4xOUoIy82y-2" value="/login" style="rounded=0;whiteSpace=wrap;html=1;" vertex="1" parent="1">
          <mxGeometry x="350" y="120" width="90" height="30" as="geometry" />
        </mxCell>
        <mxCell id="hKUSv064cI4xOUoIy82y-3" value="/signup" style="rounded=0;whiteSpace=wrap;html=1;" vertex="1" parent="1">
          <mxGeometry x="350" y="160" width="90" height="30" as="geometry" />
        </mxCell>
        <mxCell id="hKUSv064cI4xOUoIy82y-50" value="" style="edgeStyle=elbowEdgeStyle;rounded=0;orthogonalLoop=1;jettySize=auto;html=1;startArrow=none;startFill=0;endArrow=none;endFill=0;strokeColor=#000000;" edge="1" parent="1" source="hKUSv064cI4xOUoIy82y-4" target="hKUSv064cI4xOUoIy82y-47">
          <mxGeometry relative="1" as="geometry" />
        </mxCell>
        <mxCell id="hKUSv064cI4xOUoIy82y-55" value="" style="edgeStyle=elbowEdgeStyle;rounded=0;orthogonalLoop=1;jettySize=auto;html=1;startArrow=none;startFill=0;endArrow=none;endFill=0;strokeColor=#000000;" edge="1" parent="1" source="hKUSv064cI4xOUoIy82y-4" target="hKUSv064cI4xOUoIy82y-54">
          <mxGeometry relative="1" as="geometry" />
        </mxCell>
        <mxCell id="hKUSv064cI4xOUoIy82y-4" value="/account" style="rounded=0;whiteSpace=wrap;html=1;" vertex="1" parent="1">
          <mxGeometry x="470" y="120" width="90" height="30" as="geometry" />
        </mxCell>
        <mxCell id="hKUSv064cI4xOUoIy82y-39" style="edgeStyle=elbowEdgeStyle;rounded=0;orthogonalLoop=1;jettySize=auto;html=1;entryX=-0.039;entryY=0.601;entryDx=0;entryDy=0;entryPerimeter=0;endArrow=none;endFill=0;" edge="1" parent="1">
          <mxGeometry relative="1" as="geometry">
            <mxPoint x="683" y="190" as="sourcePoint" />
            <mxPoint x="708.71" y="133.0300000000001" as="targetPoint" />
            <Array as="points">
              <mxPoint x="690" y="160" />
            </Array>
          </mxGeometry>
        </mxCell>
        <mxCell id="hKUSv064cI4xOUoIy82y-42" value="" style="edgeStyle=elbowEdgeStyle;rounded=0;orthogonalLoop=1;jettySize=auto;html=1;entryX=0;entryY=0.5;entryDx=0;entryDy=0;endArrow=none;endFill=0;" edge="1" parent="1" target="hKUSv064cI4xOUoIy82y-10">
          <mxGeometry relative="1" as="geometry">
            <mxPoint x="670" y="190" as="sourcePoint" />
          </mxGeometry>
        </mxCell>
        <mxCell id="hKUSv064cI4xOUoIy82y-43" value="" style="edgeStyle=elbowEdgeStyle;rounded=0;orthogonalLoop=1;jettySize=auto;html=1;endArrow=none;endFill=0;" edge="1" parent="1" target="hKUSv064cI4xOUoIy82y-9">
          <mxGeometry relative="1" as="geometry">
            <mxPoint x="670" y="190" as="sourcePoint" />
          </mxGeometry>
        </mxCell>
        <mxCell id="hKUSv064cI4xOUoIy82y-44" value="" style="edgeStyle=elbowEdgeStyle;rounded=0;orthogonalLoop=1;jettySize=auto;html=1;entryX=0;entryY=0.5;entryDx=0;entryDy=0;endArrow=none;endFill=0;" edge="1" parent="1" target="hKUSv064cI4xOUoIy82y-8">
          <mxGeometry relative="1" as="geometry">
            <mxPoint x="670" y="190" as="sourcePoint" />
          </mxGeometry>
        </mxCell>
        <mxCell id="hKUSv064cI4xOUoIy82y-7" value="/my_posts" style="rounded=0;whiteSpace=wrap;html=1;" vertex="1" parent="1">
          <mxGeometry x="710" y="115" width="110" height="30" as="geometry" />
        </mxCell>
        <mxCell id="hKUSv064cI4xOUoIy82y-8" value="/my_comments" style="rounded=0;whiteSpace=wrap;html=1;" vertex="1" parent="1">
          <mxGeometry x="710" y="155" width="110" height="30" as="geometry" />
        </mxCell>
        <mxCell id="hKUSv064cI4xOUoIy82y-9" value="/liked_posts" style="rounded=0;whiteSpace=wrap;html=1;" vertex="1" parent="1">
          <mxGeometry x="710" y="195" width="110" height="30" as="geometry" />
        </mxCell>
        <mxCell id="hKUSv064cI4xOUoIy82y-10" value="/liked_comments" style="rounded=0;whiteSpace=wrap;html=1;" vertex="1" parent="1">
          <mxGeometry x="710" y="235" width="110" height="30" as="geometry" />
        </mxCell>
        <mxCell id="hKUSv064cI4xOUoIy82y-19" value="" style="endArrow=none;html=1;entryX=0.5;entryY=1;entryDx=0;entryDy=0;exitX=0.5;exitY=0;exitDx=0;exitDy=0;" edge="1" parent="1" source="hKUSv064cI4xOUoIy82y-2" target="hKUSv064cI4xOUoIy82y-1">
          <mxGeometry width="50" height="50" relative="1" as="geometry">
            <mxPoint x="300" y="250" as="sourcePoint" />
            <mxPoint x="350" y="200" as="targetPoint" />
          </mxGeometry>
        </mxCell>
        <mxCell id="hKUSv064cI4xOUoIy82y-23" value="" style="endArrow=none;html=1;entryX=0.5;entryY=1;entryDx=0;entryDy=0;exitX=0.5;exitY=0;exitDx=0;exitDy=0;" edge="1" parent="1" source="hKUSv064cI4xOUoIy82y-3" target="hKUSv064cI4xOUoIy82y-2">
          <mxGeometry width="50" height="50" relative="1" as="geometry">
            <mxPoint x="280" y="190" as="sourcePoint" />
            <mxPoint x="330" y="140" as="targetPoint" />
          </mxGeometry>
        </mxCell>
        <mxCell id="hKUSv064cI4xOUoIy82y-24" value="" style="endArrow=none;html=1;entryX=0;entryY=0.5;entryDx=0;entryDy=0;exitX=1;exitY=0.5;exitDx=0;exitDy=0;" edge="1" parent="1" source="hKUSv064cI4xOUoIy82y-2" target="hKUSv064cI4xOUoIy82y-4">
          <mxGeometry width="50" height="50" relative="1" as="geometry">
            <mxPoint x="300" y="190" as="sourcePoint" />
            <mxPoint x="350" y="140" as="targetPoint" />
          </mxGeometry>
        </mxCell>
        <mxCell id="hKUSv064cI4xOUoIy82y-47" value="/activity" style="rounded=0;whiteSpace=wrap;html=1;" vertex="1" parent="1">
          <mxGeometry x="580" y="180" width="90" height="30" as="geometry" />
        </mxCell>
        <mxCell id="hKUSv064cI4xOUoIy82y-54" value="/profile" style="rounded=0;whiteSpace=wrap;html=1;" vertex="1" parent="1">
          <mxGeometry x="580" y="60" width="90" height="30" as="geometry" />
        </mxCell>
        <mxCell id="hKUSv064cI4xOUoIy82y-59" value="" style="edgeStyle=elbowEdgeStyle;rounded=0;orthogonalLoop=1;jettySize=auto;html=1;startArrow=none;startFill=0;endArrow=none;endFill=0;strokeColor=#000000;" edge="1" parent="1" source="hKUSv064cI4xOUoIy82y-56" target="hKUSv064cI4xOUoIy82y-58">
          <mxGeometry relative="1" as="geometry" />
        </mxCell>
        <mxCell id="hKUSv064cI4xOUoIy82y-56" value="/community/${number}" style="rounded=0;whiteSpace=wrap;html=1;" vertex="1" parent="1">
          <mxGeometry x="160" y="130" width="130" height="30" as="geometry" />
        </mxCell>
        <mxCell id="hKUSv064cI4xOUoIy82y-58" value="?bord=${number}" style="rounded=0;whiteSpace=wrap;html=1;" vertex="1" parent="1">
          <mxGeometry x="160" y="240" width="130" height="30" as="geometry" />
        </mxCell>
      </root>
    </mxGraphModel>
  </diagram>
</mxfile>
